REM DIRINDEX 1\2\6,1\2\7,1\2\8,1\3\9,1\3\10,1\3\11,1\4\12,1\4\13,1\4\14,1\5\15,1\5\16,1\5\17,1\5\18
REM DIRNAME folder01,folder02,folder03,folder04,folder05,folder06,folder07,folder08,folder09,folder10,folder11,folder12,folder13,folder14,folder15,folder16,folder17,folder18
TITLE ""
FILE "" MP3
  TRACK 01 AUDIO
    TITLE "16:cjc019_7807"
    INDEX 01 00:00:00
  TRACK 02 AUDIO
    TITLE "0:"
    INDEX 01 00:01:05
  TRACK 03 AUDIO
    TITLE "18:cjc019_7808"
    INDEX 01 00:01:60
  TRACK 04 AUDIO
    TITLE "0:"
    INDEX 01 00:03:15
  TRACK 05 AUDIO
    TITLE "17:cjc019_7809"
    INDEX 01 00:03:68
  TRACK 06 AUDIO
    TITLE "0:"
    INDEX 01 00:05:10
  TRACK 07 AUDIO
    TITLE "16:cjc019_7810"
    INDEX 01 00:06:67
  TRACK 08 AUDIO
    TITLE "0:"
    INDEX 01 00:08:05
  TRACK 09 AUDIO
    TITLE "18:cjc019_7811"
    INDEX 01 00:08:60
  TRACK 10 AUDIO
    TITLE "0:"
    INDEX 01 00:11:66
  TRACK 11 AUDIO
    TITLE "17:cjc019_7812"
    INDEX 01 00:12:46
  TRACK 12 AUDIO
    TITLE "0:"
    INDEX 01 00:13:59
  TRACK 13 AUDIO
    TITLE "16:cjc019_7813"
    INDEX 01 00:15:42
  TRACK 14 AUDIO
    TITLE "0:"
    INDEX 01 00:16:59
  TRACK 15 AUDIO
    TITLE "18:cjc019_7814"
    INDEX 01 00:17:41
  TRACK 16 AUDIO
    TITLE "0:"
    INDEX 01 00:20:69
  TRACK 17 AUDIO
    TITLE "17:cjc019_7815"
    INDEX 01 00:21:53
  TRACK 18 AUDIO
    TITLE "0:"
    INDEX 01 00:22:68
  TRACK 19 AUDIO
    TITLE "16:cjc019_7816"
    INDEX 01 00:24:51
  TRACK 20 AUDIO
    TITLE "0:"
    INDEX 01 00:25:62
  TRACK 21 AUDIO
    TITLE "18:cjc019_7817"
    INDEX 01 00:26:48
  TRACK 22 AUDIO
    TITLE "0:"
    INDEX 01 00:28:66
  TRACK 23 AUDIO
    TITLE "17:cjc019_7818"
    INDEX 01 00:29:48
  TRACK 24 AUDIO
    TITLE "0:"
    INDEX 01 00:30:59
  TRACK 25 AUDIO
    TITLE "16:cjc019_7819"
    INDEX 01 00:32:50
  TRACK 26 AUDIO
    TITLE "0:"
    INDEX 01 00:34:08
  TRACK 27 AUDIO
    TITLE "18:cjc019_7820"
    INDEX 01 00:34:65
  TRACK 28 AUDIO
    TITLE "0:"
    INDEX 01 00:40:44
  TRACK 29 AUDIO
    TITLE "17:cjc019_7821"
    INDEX 01 00:41:24
  TRACK 30 AUDIO
    TITLE "0:"
    INDEX 01 00:42:63
  TRACK 31 AUDIO
    TITLE "16:cjc019_7822"
    INDEX 01 00:44:46
  TRACK 32 AUDIO
    TITLE "0:"
    INDEX 01 00:45:71
  TRACK 33 AUDIO
    TITLE "18:cjc019_7823"
    INDEX 01 00:46:47
  TRACK 34 AUDIO
    TITLE "0:"
    INDEX 01 00:49:20
  TRACK 35 AUDIO
    TITLE "17:cjc019_7824"
    INDEX 01 00:49:74
  TRACK 36 AUDIO
    TITLE "0:"
    INDEX 01 00:51:26
  TRACK 37 AUDIO
    TITLE "16:cjc019_7825"
    INDEX 01 00:53:09
  TRACK 38 AUDIO
    TITLE "0:"
    INDEX 01 00:54:30
  TRACK 39 AUDIO
    TITLE "18:cjc019_7826"
    INDEX 01 00:55:10
  TRACK 40 AUDIO
    TITLE "0:"
    INDEX 01 00:56:35
  TRACK 41 AUDIO
    TITLE "17:cjc019_7827"
    INDEX 01 00:57:15
  TRACK 42 AUDIO
    TITLE "0:"
    INDEX 01 00:58:38
  TRACK 43 AUDIO
    TITLE "16:cjc019_7828"
    INDEX 01 01:00:17
  TRACK 44 AUDIO
    TITLE "0:"
    INDEX 01 01:01:33
  TRACK 45 AUDIO
    TITLE "18:cjc019_7829"
    INDEX 01 01:02:08
  TRACK 46 AUDIO
    TITLE "0:"
    INDEX 01 01:03:24
  TRACK 47 AUDIO
    TITLE "17:cjc019_7830"
    INDEX 01 01:04:03
  TRACK 48 AUDIO
    TITLE "0:"
    INDEX 01 01:05:17
  TRACK 49 AUDIO
    TITLE "16:cjc019_7831"
    INDEX 01 01:06:71
  TRACK 50 AUDIO
    TITLE "0:"
    INDEX 01 01:08:15
  TRACK 51 AUDIO
    TITLE "18:cjc019_7832"
    INDEX 01 01:08:72
  TRACK 52 AUDIO
    TITLE "0:"
    INDEX 01 01:11:29
  TRACK 53 AUDIO
    TITLE "17:cjc019_7833"
    INDEX 01 01:12:05
  TRACK 54 AUDIO
    TITLE "0:"
    INDEX 01 01:13:26
  TRACK 55 AUDIO
    TITLE "16:cjc019_7834"
    INDEX 01 01:15:11
  TRACK 56 AUDIO
    TITLE "0:"
    INDEX 01 01:16:38
  TRACK 57 AUDIO
    TITLE "18:cjc019_7835"
    INDEX 01 01:17:24
  TRACK 58 AUDIO
    TITLE "0:"
    INDEX 01 01:19:54
  TRACK 59 AUDIO
    TITLE "17:cjc019_7836"
    INDEX 01 01:20:30
  TRACK 60 AUDIO
    TITLE "0:"
    INDEX 01 01:21:59
  TRACK 61 AUDIO
    TITLE "16:cjc019_7837"
    INDEX 01 01:23:42
  TRACK 62 AUDIO
    TITLE "0:"
    INDEX 01 01:24:65
  TRACK 63 AUDIO
    TITLE "18:cjc019_7838"
    INDEX 01 01:25:51
  TRACK 64 AUDIO
    TITLE "0:"
    INDEX 01 01:28:41
  TRACK 65 AUDIO
    TITLE "17:cjc019_7839"
    INDEX 01 01:29:23
  TRACK 66 AUDIO
    TITLE "0:"
    INDEX 01 01:30:50
  TRACK 67 AUDIO
    TITLE "16:cjc019_7840"
    INDEX 01 01:32:31
  TRACK 68 AUDIO
    TITLE "0:"
    INDEX 01 01:33:56
  TRACK 69 AUDIO
    TITLE "18:cjc019_7841"
    INDEX 01 01:34:38
  TRACK 70 AUDIO
    TITLE "0:"
    INDEX 01 01:38:24
  TRACK 71 AUDIO
    TITLE "17:cjc019_7842"
    INDEX 01 01:39:02
  TRACK 72 AUDIO
    TITLE "0:"
    INDEX 01 01:40:23
  TRACK 73 AUDIO
    TITLE "16:cjc019_7843"
    INDEX 01 01:42:02
  TRACK 74 AUDIO
    TITLE "0:"
    INDEX 01 01:43:29
  TRACK 75 AUDIO
    TITLE "18:cjc019_7844"
    INDEX 01 01:44:05
  TRACK 76 AUDIO
    TITLE "0:"
    INDEX 01 01:45:20
  TRACK 77 AUDIO
    TITLE "17:cjc019_7845"
    INDEX 01 01:46:00
  TRACK 78 AUDIO
    TITLE "0:"
    INDEX 01 01:47:29
  TRACK 79 AUDIO
    TITLE "16:cjc019_7846"
    INDEX 01 01:49:12
  TRACK 80 AUDIO
    TITLE "0:"
    INDEX 01 01:50:23
  TRACK 81 AUDIO
    TITLE "18:cjc019_7847"
    INDEX 01 01:51:07
  TRACK 82 AUDIO
    TITLE "0:"
    INDEX 01 01:52:32
  TRACK 83 AUDIO
    TITLE "17:cjc019_7848"
    INDEX 01 01:53:12
  TRACK 84 AUDIO
    TITLE "0:"
    INDEX 01 01:54:29
  TRACK 85 AUDIO
    TITLE "16:cjc019_7849"
    INDEX 01 01:56:16
  TRACK 86 AUDIO
    TITLE "0:"
    INDEX 01 01:57:23
  TRACK 87 AUDIO
    TITLE "18:cjc019_7850"
    INDEX 01 01:58:09
  TRACK 88 AUDIO
    TITLE "0:"
    INDEX 01 02:01:01
  TRACK 89 AUDIO
    TITLE "17:cjc019_7851"
    INDEX 01 02:01:56
  TRACK 90 AUDIO
    TITLE "0:"
    INDEX 01 02:02:67
  TRACK 91 AUDIO
    TITLE "16:cjc019_7852"
    INDEX 01 02:04:43
  TRACK 92 AUDIO
    TITLE "0:"
    INDEX 01 02:05:48
  TRACK 93 AUDIO
    TITLE "18:cjc019_7853"
    INDEX 01 02:06:24
  TRACK 94 AUDIO
    TITLE "0:"
    INDEX 01 02:08:48
  TRACK 95 AUDIO
    TITLE "17:cjc019_7854"
    INDEX 01 02:09:26
  TRACK 96 AUDIO
    TITLE "0:"
    INDEX 01 02:10:40
  TRACK 97 AUDIO
    TITLE "16:cjc019_7855"
    INDEX 01 02:12:17
  TRACK 98 AUDIO
    TITLE "0:"
    INDEX 01 02:13:44
  TRACK 99 AUDIO
    TITLE "18:cjc019_7856"
    INDEX 01 02:14:24
  TRACK 100 AUDIO
    TITLE "0:"
    INDEX 01 02:16:54
  TRACK 101 AUDIO
    TITLE "17:cjc019_7857"
    INDEX 01 02:17:30
  TRACK 102 AUDIO
    TITLE "0:"
    INDEX 01 02:18:65
  TRACK 103 AUDIO
    TITLE "16:cjc019_7858"
    INDEX 01 02:20:46
  TRACK 104 AUDIO
    TITLE "0:"
    INDEX 01 02:22:02
  TRACK 105 AUDIO
    TITLE "18:cjc019_7859"
    INDEX 01 02:22:54
  TRACK 106 AUDIO
    TITLE "0:"
    INDEX 01 02:25:47
  TRACK 107 AUDIO
    TITLE "17:cjc019_7860"
    INDEX 01 02:26:25
  TRACK 108 AUDIO
    TITLE "0:"
    INDEX 01 02:27:63
